<svg xmlns="http://www.w3.org/2000/svg" width="980" height="540" viewBox="0 0 980 540">
<rect width="100%" height="100%" fill="white"/>
<text x="490" y="32" text-anchor="middle" font-family="Arial" font-size="20" font-weight="700">Action Sequencing Task Success</text>
<text x="590" y="522" text-anchor="middle" font-family="Arial" font-size="12">task_success_rate (%)</text>
<line x1="240.0" y1="60" x2="240.0" y2="492" stroke="#ddd"/>
<text x="240.0" y="508" text-anchor="middle" font-family="Arial" font-size="10">0</text>
<line x1="380.0" y1="60" x2="380.0" y2="492" stroke="#ddd"/>
<text x="380.0" y="508" text-anchor="middle" font-family="Arial" font-size="10">18</text>
<line x1="520.0" y1="60" x2="520.0" y2="492" stroke="#ddd"/>
<text x="520.0" y="508" text-anchor="middle" font-family="Arial" font-size="10">35</text>
<line x1="660.0" y1="60" x2="660.0" y2="492" stroke="#ddd"/>
<text x="660.0" y="508" text-anchor="middle" font-family="Arial" font-size="10">53</text>
<line x1="800.0" y1="60" x2="800.0" y2="492" stroke="#ddd"/>
<text x="800.0" y="508" text-anchor="middle" font-family="Arial" font-size="10">71</text>
<line x1="940.0" y1="60" x2="940.0" y2="492" stroke="#ddd"/>
<text x="940.0" y="508" text-anchor="middle" font-family="Arial" font-size="10">88</text>
<text x="232" y="86" text-anchor="end" font-family="Arial" font-size="11">glm-5-turbo</text>
<rect x="240" y="70" width="700.0" height="18" fill="#4C78A8"/>
<text x="945.0" y="84" font-family="Arial" font-size="11">88.4</text>
<text x="232" y="112" text-anchor="end" font-family="Arial" font-size="11">glm-5-turbo_sg_rag</text>
<rect x="240" y="96" width="690.8" height="18" fill="#F58518"/>
<text x="935.8" y="110" font-family="Arial" font-size="11">87.2</text>
<text x="232" y="138" text-anchor="end" font-family="Arial" font-size="11">minimax-m2-stable</text>
<rect x="240" y="122" width="681.6" height="18" fill="#54A24B"/>
<text x="926.6" y="136" font-family="Arial" font-size="11">86.0</text>
<text x="232" y="164" text-anchor="end" font-family="Arial" font-size="11">deepseek-v4-flash_plan_then_ground</text>
<rect x="240" y="148" width="635.5" height="18" fill="#E45756"/>
<text x="880.5" y="162" font-family="Arial" font-size="11">80.2</text>
<text x="232" y="190" text-anchor="end" font-family="Arial" font-size="11">deepseek-v4-flash_few_shot</text>
<rect x="240" y="174" width="630.9" height="18" fill="#72B7B2"/>
<text x="875.9" y="188" font-family="Arial" font-size="11">79.7</text>
<text x="232" y="216" text-anchor="end" font-family="Arial" font-size="11">deepseek-v4-flash_format_constraints</text>
<rect x="240" y="200" width="626.3" height="18" fill="#B279A2"/>
<text x="871.3" y="214" font-family="Arial" font-size="11">79.1</text>
<text x="232" y="242" text-anchor="end" font-family="Arial" font-size="11">deepseek-v4-flash_sg_rag</text>
<rect x="240" y="226" width="626.3" height="18" fill="#FF9DA6"/>
<text x="871.3" y="240" font-family="Arial" font-size="11">79.1</text>
<text x="232" y="268" text-anchor="end" font-family="Arial" font-size="11">minimax-m2-stable_sg_rag</text>
<rect x="240" y="252" width="626.3" height="18" fill="#9D755D"/>
<text x="871.3" y="266" font-family="Arial" font-size="11">79.1</text>
<text x="232" y="294" text-anchor="end" font-family="Arial" font-size="11">mistral-large-2402</text>
<rect x="240" y="278" width="605.1" height="18" fill="#4C78A8"/>
<text x="850.1" y="292" font-family="Arial" font-size="11">76.4</text>
<text x="232" y="320" text-anchor="end" font-family="Arial" font-size="11">deepseek-v4-flash</text>
<rect x="240" y="304" width="598.7" height="18" fill="#F58518"/>
<text x="843.7" y="318" font-family="Arial" font-size="11">75.6</text>
<text x="232" y="346" text-anchor="end" font-family="Arial" font-size="11">claude-3-5-sonnet-20240620</text>
<rect x="240" y="330" width="576.5" height="18" fill="#54A24B"/>
<text x="821.5" y="344" font-family="Arial" font-size="11">72.8</text>
<text x="232" y="372" text-anchor="end" font-family="Arial" font-size="11">claude-3-opus-20240229</text>
<rect x="240" y="356" width="542.8" height="18" fill="#E45756"/>
<text x="787.8" y="370" font-family="Arial" font-size="11">68.5</text>
<text x="232" y="398" text-anchor="end" font-family="Arial" font-size="11">o1-mini-2024-09-12</text>
<rect x="240" y="382" width="519.4" height="18" fill="#72B7B2"/>
<text x="764.4" y="396" font-family="Arial" font-size="11">65.6</text>
<text x="232" y="424" text-anchor="end" font-family="Arial" font-size="11">cohere-command-r-plus</text>
<rect x="240" y="408" width="509.0" height="18" fill="#B279A2"/>
<text x="754.0" y="422" font-family="Arial" font-size="11">64.3</text>
<text x="232" y="450" text-anchor="end" font-family="Arial" font-size="11">gpt-4o-2024-05-13</text>
<rect x="240" y="434" width="506.4" height="18" fill="#FF9DA6"/>
<text x="751.4" y="448" font-family="Arial" font-size="11">63.9</text>
</svg>
